<?xml version="1.0" encoding="iso-8859-1"?>
<!-- Generator: Adobe Illustrator 18.0.0, SVG Export Plug-In . SVG Version: 6.00 Build 0)  -->
<!DOCTYPE svg PUBLIC "-//W3C//DTD SVG 1.1//EN" "http://www.w3.org/Graphics/SVG/1.1/DTD/svg11.dtd">
<svg xmlns="http://www.w3.org/2000/svg" xmlns:xlink="http://www.w3.org/1999/xlink" version="1.1" id="Capa_1" x="0px" y="0px" viewBox="0 0 231.879 231.879" style="enable-background:new 0 0 231.879 231.879;" xml:space="preserve" width="512px" height="512px">
<g>
	<path d="M131.018,83.672V70.611c0-21.122-17.184-38.306-38.306-38.306C78.207,32.306,66.406,20.505,66.406,6c0-3.313-2.687-6-6-6   s-6,2.687-6,6c0,21.122,17.184,38.306,38.306,38.306c14.505,0,26.306,11.801,26.306,26.306v13.061   c-26.108,2.988-46.456,25.208-46.456,52.102v43.649c0,28.924,23.531,52.456,52.456,52.456c28.924,0,52.455-23.531,52.455-52.456   v-43.649C177.473,108.879,157.125,86.66,131.018,83.672z M165.473,179.423c0,22.307-18.148,40.456-40.455,40.456   c-22.308,0-40.456-18.148-40.456-40.456v-43.649c0-22.307,18.148-40.456,40.456-40.456c22.307,0,40.455,18.148,40.455,40.456   V179.423z" fill="#FFFFFF"/>
	<path d="M126.576,120.732c-3.313,0-6,2.687-6,6v13.719c0,3.313,2.687,6,6,6s6-2.687,6-6v-13.719   C132.576,123.418,129.89,120.732,126.576,120.732z" fill="#FFFFFF"/>
</g>
<g>
</g>
<g>
</g>
<g>
</g>
<g>
</g>
<g>
</g>
<g>
</g>
<g>
</g>
<g>
</g>
<g>
</g>
<g>
</g>
<g>
</g>
<g>
</g>
<g>
</g>
<g>
</g>
<g>
</g>
</svg>
