<?xml version="1.0" encoding="utf-8"?>
<!-- Generator: Adobe Illustrator 17.0.0, SVG Export Plug-In . SVG Version: 6.00 Build 0)  -->
<!DOCTYPE svg PUBLIC "-//W3C//DTD SVG 1.1//EN" "http://www.w3.org/Graphics/SVG/1.1/DTD/svg11.dtd">
<svg version="1.1" id="Слой_1" xmlns:sketch="http://www.bohemiancoding.com/sketch/ns"
	 xmlns="http://www.w3.org/2000/svg" xmlns:xlink="http://www.w3.org/1999/xlink" x="0px" y="0px" width="258.836px"
	 height="480.711px" viewBox="-669.87 62.988 258.836 480.711" enable-background="new -669.87 62.988 258.836 480.711"
	 xml:space="preserve">
<title>apple-iphone-5s</title>
<description>Created with Sketch (http://www.bohemiancoding.com/sketch)</description>
<path fill="#FFFFFF" d="M-448.501,65.06h-4.696v-2.072h-42.164v2.072h-133.528c-20.693,0-37.468,14.849-37.468,33.159v33.146h-3.513
	v21.756h3.513v22.792h-3.513v17.612h3.513v21.756h-3.513v17.612h3.513V510.54c0,18.313,16.777,33.159,37.468,33.159h180.386
	c20.693,0,37.468-14.849,37.468-33.159V98.218C-411.033,79.906-427.81,65.06-448.501,65.06z M-537.928,83.708
	c2.574,0,4.661,2.088,4.661,4.662s-2.087,4.662-4.661,4.662c-2.574,0-4.661-2.088-4.661-4.662S-540.503,83.708-537.928,83.708z
	 M-557.091,105.474c0-0.586,0.468-1.045,1.046-1.045h36.234c0.588,0,1.046,0.468,1.046,1.045v2.052c0,0.586-0.467,1.045-1.044,1.045
	h-36.245c-0.568,0-1.036-0.468-1.036-1.045L-557.091,105.474L-557.091,105.474z M-569.521,103.392c1.716,0,3.107,1.391,3.107,3.108
	s-1.391,3.108-3.107,3.108c-1.715,0-3.107-1.391-3.107-3.108S-571.237,103.392-569.521,103.392z M-539.484,538.201
	c-10.869,0-19.681-8.813-19.681-19.684s8.812-19.684,19.681-19.684c10.869,0,19.68,8.813,19.68,19.684
	C-519.803,529.388-528.615,538.201-539.484,538.201z M-418.542,489.827c0,1.197-1.116,2.173-2.493,2.173h-235.063
	c-1.371,0-2.493-0.973-2.493-2.173V131.984c0-1.197,1.116-2.173,2.493-2.173h235.063c1.371,0,2.493,0.973,2.493,2.173V489.827
	L-418.542,489.827z"/>
</svg>
